<?xml version="1.0" standalone="no"?>
<!DOCTYPE svg PUBLIC "-//W3C//DTD SVG 1.1//EN" "http://www.w3.org/Graphics/SVG/1.1/DTD/svg11.dtd" >
<svg>
<metadata>
Created by FontForge 20090622 at Sat May 30 07:17:28 2015
 By deploy user
Copyright (c) 2010 by Svetoslav Simov. All rights reserved.
</metadata>
<defs>
<font id="Null-Free" horiz-adv-x="864" >
  <font-face 
    font-family="Null Free"
    font-weight="400"
    font-stretch="normal"
    units-per-em="1000"
    panose-1="2 0 0 0 0 0 0 0 0 0"
    ascent="750"
    descent="-250"
    x-height="561"
    cap-height="700"
    bbox="-36 -209.612 1243 876"
    underline-thickness="50"
    underline-position="-50"
    unicode-range="U+0020-U+02DD"
  />
<missing-glyph horiz-adv-x="238" 
 />
    <glyph glyph-name=".notdef" horiz-adv-x="238" 
 />
    <glyph glyph-name=".null" horiz-adv-x="0" 
 />
    <glyph glyph-name="nonmarkingreturn" horiz-adv-x="333" 
 />
    <glyph glyph-name="space" unicode=" " horiz-adv-x="203" 
 />
    <glyph glyph-name="exclam" unicode="!" horiz-adv-x="68" 
d="M30 180v521h15v-521h-15zM30 121h15v-121h-15v121z" />
    <glyph glyph-name="comma" unicode="," horiz-adv-x="119" 
d="M15 -136l47 246h19l-51 -246h-15z" />
    <glyph glyph-name="period" unicode="." horiz-adv-x="94" 
d="M34 59h21v-59h-21v59z" />
    <glyph glyph-name="zero" unicode="0" horiz-adv-x="764" 
d="M283 347q0 -51 41 -81l-139 -227q-80 49 -127 131t-47 178q0 151 108.5 257.5t262.5 106.5q99 0 186 -49l-140 -228q-21 12 -46 12q-41 0 -70 -29.5t-29 -70.5zM440 428l139 228q80 -49 127.5 -130.5t47.5 -177.5q0 -151 -109 -257.5t-263 -106.5q-101 0 -185 48l139 227
q22 -11 46 -11q41 0 70.5 29t29.5 70q0 51 -42 81z" />
    <glyph glyph-name="one" unicode="1" horiz-adv-x="407" 
d="M134 700h262v-700h-262v421h105v15h-230v15z" />
    <glyph glyph-name="two" unicode="2" horiz-adv-x="722" 
d="M11 700h397q37 0 55.5 -0.5t49 -3t48.5 -9t41 -17.5t41 -28.5t34 -42.5q46 -66 37.5 -161t-74.5 -152h-251v2q39 17 45 53.5t-17 65.5t-56 29h-350v264zM187 419h136q-30 -11 -41.5 -36.5t-6.5 -52.5q11 -60 87 -60h349v-270h-702v52z" />
    <glyph glyph-name="three" unicode="3" horiz-adv-x="640" 
d="M297 0h-282v232h294v18h-294v200h294v18h-294v232h282h13q37 0 56 -0.5t51 -3t51.5 -8.5t43.5 -16t43 -26.5t35 -39.5q39 -55 29 -129.5t-61 -114.5q41 -27 59.5 -77t12 -102t-33.5 -91q-23 -33 -53 -53t-72.5 -28t-70.5 -9.5t-84 -1.5h-19z" />
    <glyph glyph-name="four" unicode="4" horiz-adv-x="724" 
d="M452 0v101h-441v39l297 560h260l-166 -354h46v63l135 291h130v-700h-261z" />
    <glyph glyph-name="five" unicode="5" horiz-adv-x="702" 
d="M346 414v10h256q58 -38 78.5 -100.5t6.5 -125.5t-54 -113q-20 -25 -45.5 -42t-47 -25.5t-57.5 -12.5t-57 -4.5t-66 -0.5h-348v260h344q49 0 67 45q17 43 -10 78q-23 29 -67 31zM273 278h-261v422h664v-259h-403v-163z" />
    <glyph glyph-name="six" unicode="6" horiz-adv-x="728" 
d="M539 704l-218 -304q-49 -61 -49 -96t19.5 -58.5t47 -27.5t55 2.5t47 31t19.5 58.5q0 38 -31.5 68.5t-88.5 22.5l115 162q115 3 189.5 -79t70.5 -198q-4 -102 -64.5 -177t-145.5 -106.5t-183.5 -25t-175.5 55.5q-50 31 -83.5 81t-46 110.5t5 131t66.5 135.5l164 213h287z
" />
    <glyph glyph-name="seven" unicode="7" horiz-adv-x="677" 
d="M406 459h-396v241h658v-52l-335 -648h-295v34l223 411h140z" />
    <glyph glyph-name="eight" unicode="8" horiz-adv-x="703" 
d="M111 363q-43 24 -61 59q-28 51 -19 113t51 103q56 54 164.5 74.5t216 0.5t159.5 -76q39 -42 48.5 -99.5t-13.5 -107.5q-18 -43 -63 -67q51 -18 78 -70t21 -112.5t-43 -102.5q-60 -67 -183 -91t-245 4t-178 99q-33 42 -34 100t27.5 107t73.5 66zM290 484q0 -32 31 -45.5
t62.5 -0.5t31.5 46t-31.5 46.5t-62.5 0t-31 -46.5zM273 213q0 -26 25 -41t54.5 -15t54.5 15t25 41q0 29 -25 45.5t-54.5 16.5t-54.5 -16.5t-25 -45.5z" />
    <glyph glyph-name="nine" unicode="9" horiz-adv-x="722" 
d="M191 0l212 300q49 61 49 96t-19.5 58.5t-47 27.5t-55 -2.5t-47 -31t-19.5 -58.5q0 -38 31.5 -68.5t88.5 -22.5l-115 -162q-115 -3 -189.5 79t-70.5 198q4 102 64.5 177t145.5 106.5t183.5 25t175.5 -55.5q50 -31 83.5 -81t46 -110.5t-5 -131t-66.5 -135.5l-158 -209h-287
z" />
    <glyph glyph-name="question" unicode="?" horiz-adv-x="611" 
d="M290 121v-121h-12v121h12zM278 180q0 85 37 125q29 33 118 55q29 8 44 12.5t38.5 16t35.5 25t22 37t12 54.5q4 62 -32.5 106t-99.5 66q-52 20 -120 23q-66 2 -125 -12q-81 -19 -132.5 -63t-52.5 -108l-13 1q2 69 56 116.5t139 67.5q61 15 128 12q65 -2 123 -22
q68 -25 106.5 -72.5t34.5 -115.5q-2 -34 -13 -60t-23.5 -40.5t-37.5 -27t-40.5 -17.5t-46.5 -13q-2 -1 -11 -3t-12.5 -3l-12 -3.5t-12.5 -4l-12 -4.5t-12.5 -5.5t-11 -5.5t-11 -6.5l-9.5 -7.5t-9 -9q-33 -36 -33 -114h-12z" />
    <glyph glyph-name="A" unicode="A" 
d="M272 699h314l279 -699h-279l-157 435l-75 -202h129l84 -233h-569z" />
    <glyph glyph-name="B" unicode="B" horiz-adv-x="669" 
d="M287 448h56q30 0 42 19t0 37.5t-42 18.5h-73v-332h82q31 0 43.5 19.5t-0.5 39.5t-44 20h-64v178zM10 700h312q185 0 257 -89q43 -50 41 -124.5t-54 -117.5q47 -21 71.5 -64t24 -92.5t-23.5 -94.5q-34 -67 -108.5 -92.5t-182.5 -25.5h-337v700z" />
    <glyph glyph-name="C" unicode="C" horiz-adv-x="755" 
d="M277 351q0 -42 28.5 -70.5t70.5 -28.5q40 0 68 25.5t31 64.5h270q-3 -150 -110.5 -255t-257.5 -105q-153 0 -261 108t-108 260q0 153 108 261t261 108q150 0 257.5 -105t110.5 -255h-269q-3 39 -31.5 65.5t-68.5 26.5q-42 0 -70.5 -29t-28.5 -71z" />
    <glyph glyph-name="D" unicode="D" horiz-adv-x="691" 
d="M10 0v700h332q82 0 148 -30t106.5 -79.5t62.5 -112t22 -128.5t-22 -128.5t-62.5 -112t-106.5 -79.5t-148 -30h-332zM269 271h78q32 0 50 25t18 55.5t-18 55.5t-50 25h-78v-161z" />
    <glyph glyph-name="E" unicode="E" horiz-adv-x="613" 
d="M603 468h-333v-18h333v-200h-333v-18h333v-232h-593v700h593v-232z" />
    <glyph glyph-name="F" unicode="F" horiz-adv-x="591" 
d="M10 0v700h571v-241h-311v-18h311v-229h-311v-212h-260z" />
    <glyph glyph-name="G" unicode="G" horiz-adv-x="767" 
d="M408 324v17h349v-341h-372q-173 0 -275 100.5t-102 257.5q0 148 111.5 252t263.5 104q157 0 265.5 -99t108.5 -256h-275q-3 37 -31.5 62.5t-67.5 25.5q-41 0 -70 -29.5t-29 -70.5t29 -70t70 -29h99v76h-74z" />
    <glyph glyph-name="H" unicode="H" horiz-adv-x="688" 
d="M270 0h-260v700h260v-234h147v234h260v-700h-260v234h-147v-234z" />
    <glyph glyph-name="I" unicode="I" horiz-adv-x="282" 
d="M272 0h-262v700h262v-700z" />
    <glyph glyph-name="J" unicode="J" horiz-adv-x="699" 
d="M10 331v66h263v-69q0 -31 16 -52.5t39 -26t46 0.5t39 27t16 53v370h260v-373q0 -155 -93.5 -251.5t-245.5 -96.5q-156 0 -248 91t-92 261z" />
    <glyph glyph-name="K" unicode="K" horiz-adv-x="758" 
d="M520 350l243 -350h-312l-180 276v-276h-260v700h260v-266l157 267h311z" />
    <glyph glyph-name="L" unicode="L" horiz-adv-x="536" 
d="M11 0v700h260v-447h256v-253h-516z" />
    <glyph glyph-name="M" unicode="M" horiz-adv-x="890" 
d="M324 88l-100 257h-15l67 -172v-173h-265v700h292l143 -328l143 328h291v-700h-264v173l67 172h-15l-100 -257h-244z" />
    <glyph glyph-name="N" unicode="N" horiz-adv-x="685" 
d="M261 700l195 -303h15l-56 91v212h260v-700h-263l-182 290h-16l57 -92v-198h-260v700h250z" />
    <glyph glyph-name="O" unicode="O" horiz-adv-x="786" 
d="M393 -20q-158 0 -270.5 108.5t-112.5 261.5t112.5 261t270.5 108t270 -108t112 -261t-112 -261.5t-270 -108.5zM293 350q0 -41 29 -70t70 -29t70.5 29t29.5 70t-29.5 70.5t-70.5 29.5t-70 -29.5t-29 -70.5z" />
    <glyph glyph-name="P" unicode="P" horiz-adv-x="671" 
d="M271 0h-260v700h333q66 1 122 -18.5t93.5 -53.5t65 -78.5t34.5 -94t3.5 -99.5t-28 -95t-61 -80t-95 -55.5t-129.5 -20.5h-60v243h60q36 0 51 25t0 50t-51 25h-78v-448z" />
    <glyph glyph-name="Q" unicode="Q" horiz-adv-x="790" 
d="M283 358q0 -34 25.5 -61.5t69.5 -27.5h405v-270h-398q-156 -2 -267 102t-111 257q0 152 109.5 258.5t264.5 106.5q147 0 253.5 -87.5t117.5 -232.5q2 -29 -4 -64.5t-18 -51.5h-270q25 28 25 70q0 43 -28 72t-75 29q-41 0 -70 -29.5t-29 -70.5z" />
    <glyph glyph-name="R" unicode="R" horiz-adv-x="674" 
d="M271 0h-260v700h287q101 0 174.5 -21.5t114.5 -60.5t59 -86t17 -105q-1 -60 -29 -108.5t-83 -66.5l137 -252h-272l-127 265v96h60q24 0 39 14.5t15 30.5q-1 24 -18.5 38.5t-40.5 14.5h-73v-459z" />
    <glyph glyph-name="S" unicode="S" horiz-adv-x="725" 
d="M398 0h-387v263h146l-11 17h-74q-38 36 -52.5 93t-8.5 108t26 88q44 82 111.5 106.5t191.5 24.5h376v-265h-338q-34 0 -58.5 -18t-31 -43.5t-2 -50.5t29 -43t61.5 -18q38 0 59.5 21.5t22.5 49t-15.5 53t-45.5 32.5h237q51 -39 72 -97.5t12.5 -115.5t-39.5 -104
q-17 -25 -35.5 -42.5t-42.5 -28.5t-43.5 -17.5t-51.5 -9t-51.5 -3t-57.5 -0.5z" />
    <glyph glyph-name="T" unicode="T" horiz-adv-x="591" 
d="M166 0v450h-156v250h571v-250h-156v-450h-259z" />
    <glyph glyph-name="U" unicode="U" horiz-adv-x="692" 
d="M418 332v363v5h262v-371q0 -83 -28.5 -150t-75.5 -108.5t-107 -64t-123 -22.5t-123 22.5t-107 64t-75.5 108.5t-28.5 150v371h260v-5v-363q0 -40 23 -63t50 -23t50 23t23 63z" />
    <glyph glyph-name="V" unicode="V" horiz-adv-x="862" 
d="M-2 700h281l187 -491h15l-40 110l142 381h283l-272 -699h-323z" />
    <glyph glyph-name="W" unicode="W" horiz-adv-x="1239" 
d="M385 351l117 349h228l122 -349l111 349h280l-232 -700h-312l-118 325h-15l42 -115l-74 -210h-309l-232 700h280z" />
    <glyph glyph-name="X" unicode="X" horiz-adv-x="828" 
d="M531 0l-162 257h-16l53 -85l-109 -172h-305l221 350l-204 350h303l102 -182l102 182h302l-205 -350l221 -350h-303z" />
    <glyph glyph-name="Y" unicode="Y" horiz-adv-x="831" 
d="M300 700l162 -278h15l-53 93l106 185h304l-289 -475v-225h-260v223l-290 477h305z" />
    <glyph glyph-name="Z" unicode="Z" horiz-adv-x="678" 
d="M667 259v-259h-655v52l235 389h-231v259h655v-34l-228 -394h-118l-5 -13h347z" />
    <glyph glyph-name="grave" unicode="`" horiz-adv-x="245" 
d="M159 592h-16l-77 108h18z" />
    <glyph glyph-name="a" unicode="a" horiz-adv-x="597" 
d="M299 578q119 0 204 -84.5t85 -204.5v-289h-240v289q0 20 -14.5 35t-34.5 15q-21 0 -35.5 -15t-14.5 -35t14.5 -35t35.5 -15h35v-239h-35q-120 0 -204.5 85t-84.5 204q0 120 84.5 204.5t204.5 84.5z" />
    <glyph glyph-name="b" unicode="b" horiz-adv-x="614" 
d="M11 700h246v-420q0 -21 15 -36t36 -15t36 15t15 36t-15 36t-36 15h-37v246h37q123 0 210 -87t87 -210t-87 -210t-210 -87t-210 87t-87 210v420z" />
    <glyph glyph-name="c" unicode="c" horiz-adv-x="612" 
d="M306 577q121 0 207.5 -84.5t89.5 -205.5h-247q-2 19 -16.5 31.5t-33.5 12.5q-21 0 -36 -15t-15 -36t15 -36t36 -15q19 0 33.5 12.5t16.5 31.5h247q-3 -121 -89.5 -205.5t-207.5 -84.5q-123 0 -210 87t-87 210t87 210t210 87z" />
    <glyph glyph-name="d" unicode="d" horiz-adv-x="611" 
d="M355 700h246v-420q0 -123 -87 -210t-210 -87t-209.5 87t-86.5 210t86.5 210t209.5 87h37v-246h-37q-21 0 -35.5 -15t-14.5 -36t14.5 -36t35.5 -15q22 0 36.5 15t14.5 36v420z" />
    <glyph glyph-name="e" unicode="e" horiz-adv-x="590" 
d="M530 253h-202q34 18 25.5 53.5t-53.5 36.5q-33 1 -47 -25t-1 -52t46 -26h283v-240h-283q-119 0 -204 85t-85 204q0 122 80 204.5t212 84.5q186 0 254 -117q16 -28 21 -68.5t-6.5 -80.5t-39.5 -59z" />
    <glyph glyph-name="f" unicode="f" horiz-adv-x="438" 
d="M274 701h154v-233h-158q-14 0 -14 -13h172v-233h-172v-222h-246v444q0 116 73.5 186.5t190.5 70.5z" />
    <glyph glyph-name="g" unicode="g" horiz-adv-x="607" 
d="M354 283q0 21 -14.5 36t-35.5 15t-36 -15t-15 -36t16 -35t37 -14h36l-2 -115h-273q-58 67 -58 164q0 122 86.5 208.5t208.5 86.5t208 -86.5t86 -208.5v-128q0 -121 -86 -207.5t-208 -86.5h-295v244h345v178z" />
    <glyph glyph-name="h" unicode="h" horiz-adv-x="598" 
d="M298 561q125 0 208 -71t83 -212v-278h-244v4v274q0 23 -14 37t-30.5 14.5t-30.5 -13t-14 -38.5v-278h-246v701h246v-143q21 3 42 3z" />
    <glyph glyph-name="i" unicode="i" horiz-adv-x="266" 
d="M10 0v561h246v-561h-246z" />
    <glyph glyph-name="j" unicode="j" horiz-adv-x="375" 
d="M98 -138h-89v236h95q15 0 15 15v448h246v-439q0 -117 -74 -188.5t-193 -71.5z" />
    <glyph glyph-name="k" unicode="k" horiz-adv-x="644" 
d="M256 0h-246v701h246v-354l114 214h259l-157 -280l176 -281h-259l-133 222v-222z" />
    <glyph glyph-name="l" unicode="l" horiz-adv-x="266" 
d="M10 0v701h246v-701h-246z" />
    <glyph glyph-name="m" unicode="m" horiz-adv-x="906" 
d="M572 284v-284h-239v284q0 29 -19.5 41t-38.5 0t-19 -40v-285h-246v295q0 76 24.5 132.5t66.5 88.5t90.5 47t103.5 15q95 0 158 -63q57 61 155 63q55 0 104.5 -15.5t91.5 -48t67 -89t25 -130.5v-295h-246v4v281q0 28 -19.5 40t-39 0t-19.5 -41z" />
    <glyph glyph-name="n" unicode="n" horiz-adv-x="596" 
d="M255 275v-271v-4h-246v286q0 69 25 125.5t65.5 91t92.5 53t106 18.5t106 -18.5t92.5 -53t65.5 -91t25 -125.5v-286h-246v4v271q0 33 -21.5 46.5t-43 0t-21.5 -46.5z" />
    <glyph glyph-name="o" unicode="o" horiz-adv-x="608" 
d="M305 332q-21 0 -36 -15t-15 -36t15 -36t36 -15t36 15t15 36t-15 36t-36 15zM305 -16q-123 0 -210 87t-87 210t87 210t210 87t210 -87t87 -210t-87 -210t-210 -87z" />
    <glyph glyph-name="p" unicode="p" horiz-adv-x="612" 
d="M255 -139h-246v420q0 123 87 210t210 87t210 -87t87 -210t-87 -210t-210 -87h-37v246h37q21 0 36 15t15 36t-15 36t-36 15t-36 -15t-15 -36v-420z" />
    <glyph glyph-name="q" unicode="q" horiz-adv-x="610" 
d="M601 -139h-245v420q0 21 -15 36t-36 15q-22 0 -36.5 -15t-14.5 -36t14.5 -36t36.5 -15h36v-246h-36q-123 0 -210 87t-87 210t87 210t210 87t209.5 -87t86.5 -210v-420z" />
    <glyph glyph-name="r" unicode="r" horiz-adv-x="375" 
d="M277 561h89v-235h-95q-15 0 -15 -15v-311h-246v301q0 117 74 188.5t193 71.5z" />
    <glyph glyph-name="s" unicode="s" horiz-adv-x="587" 
d="M295 0h-286v233h120q-6 10 -9 14h-68q-34 48 -37 105t20 97q34 66 97 89.5t161 23.5h285v-226h-285q-28 0 -44.5 -20t-11.5 -44q4 -20 19 -34t39 -14q28 0 42.5 19.5t9.5 43.5t-27 35h200q31 -33 44 -73t9.5 -75t-18.5 -65q-34 -65 -97.5 -87t-162.5 -22z" />
    <glyph glyph-name="t" unicode="t" horiz-adv-x="437" 
d="M426 0h-154q-120 0 -191.5 66t-71.5 191v444h246v-140h171v-232h-171v-83q0 -13 13 -13h158v-233z" />
    <glyph glyph-name="u" unicode="u" horiz-adv-x="603" 
d="M345 284v273v4h248v-287q0 -92 -43 -160t-108 -98.5t-140.5 -30.5t-140.5 30.5t-108 98.5t-43 160v287h248v-4v-273q0 -33 22 -46.5t43.5 0t21.5 46.5z" />
    <glyph glyph-name="v" unicode="v" horiz-adv-x="731" 
d="M507 0h-278l-220 561h264l117 -371h14l-30 97l89 274h263z" />
    <glyph glyph-name="w" unicode="w" horiz-adv-x="1116" 
d="M347 280l79 281h263l78 -281l79 281h263l-185 -561h-300l-98 268h-14l38 -105l-57 -163h-302l-185 561h263z" />
    <glyph glyph-name="x" unicode="x" horiz-adv-x="682" 
d="M342 423l71 138h264l-162 -280l175 -281h-264l-123 200h-16l47 -75l-77 -125h-264l173 281l-160 280h264z" />
    <glyph glyph-name="y" unicode="y" horiz-adv-x="733" 
d="M728 561l-287 -700h-248l55 141h-7l-236 559h263l129 -350h15l-35 95l87 255h264z" />
    <glyph glyph-name="z" unicode="z" horiz-adv-x="565" 
d="M298 238h258v-238h-562v27l178 297h-164v237h549v-20l-167 -290h-86z" />
    <glyph glyph-name="dieresis" unicode="&#xa8;" horiz-adv-x="404" 
d="M79 759q0 9 6.5 15.5t15.5 6.5t15.5 -6.5t6.5 -15.5t-6.5 -15.5t-15.5 -6.5t-15.5 6.5t-6.5 15.5zM277 759q0 9 6.5 15.5t15.5 6.5t15.5 -6.5t6.5 -15.5t-6 -15.5t-16 -6.5q-9 0 -15.5 6.5t-6.5 15.5z" />
    <glyph glyph-name="acute" unicode="&#xb4;" horiz-adv-x="254" 
d="M107 592h-16l75 108h18z" />
    <glyph glyph-name="cedilla" unicode="&#xb8;" horiz-adv-x="344" 
d="M175 20l-16 -48q41 8 74.5 -14.5t25.5 -61.5q-7 -31 -41.5 -46t-71.5 -8q-48 8 -73 50l12 7q18 -34 64 -44q32 -5 61.5 6t35.5 38q8 35 -25.5 51.5t-69.5 8.5l-7 8l17 57z" />
    <glyph glyph-name="Agrave" unicode="&#xc0;" 
d="M272 699h314l279 -699h-279l-157 435l-75 -202h129l84 -233h-569zM447 731h-16l-77 108h18z" />
    <glyph glyph-name="Aacute" unicode="&#xc1;" 
d="M272 699h314l279 -699h-279l-157 435l-75 -202h129l84 -233h-569zM431 730h-16l75 108h18z" />
    <glyph glyph-name="Acircumflex" unicode="&#xc2;" 
d="M272 699h314l279 -699h-279l-157 435l-75 -202h129l84 -233h-569zM554 733h-19l-103 93l-103 -93h-20v2l118 105h10l117 -105v-2z" />
    <glyph glyph-name="Atilde" unicode="&#xc3;" 
d="M272 699h314l279 -699h-279l-157 435l-75 -202h129l84 -233h-569zM322 766l-12 5q20 46 61 55q43 7 77 -27q28 -30 63 -23q34 7 51 45l12 -5q-19 -45 -61 -54q-41 -8 -76 27q-28 30 -63 23q-36 -6 -52 -46z" />
    <glyph glyph-name="Adieresis" unicode="&#xc4;" 
d="M272 699h314l279 -699h-279l-157 435l-75 -202h129l84 -233h-569zM309 776q0 9 6.5 15.5t15.5 6.5t15.5 -6.5t6.5 -15.5t-6.5 -15.5t-15.5 -6.5t-15.5 6.5t-6.5 15.5zM507 776q0 9 6.5 15.5t15.5 6.5t15.5 -6.5t6.5 -15.5t-6 -15.5t-16 -6.5q-9 0 -15.5 6.5t-6.5 15.5z
" />
    <glyph glyph-name="Aring" unicode="&#xc5;" 
d="M429 701q36 0 56 20t20 43.5t-20 43.5t-56 20q-47 0 -66.5 -32t0 -63.5t66.5 -31.5zM272 699h105q-32 18 -38.5 52t18 62t72.5 28t72.5 -28t18 -62t-38.5 -52h105l279 -699h-279l-157 435l-75 -202h129l84 -233h-569z" />
    <glyph glyph-name="AE" unicode="&#xc6;" horiz-adv-x="1197" 
d="M1183 468h-327v-18h327v-200h-327v-18h327v-232h-580v471h-59l-142 -243h187v-228h-591l383 700h802v-232z" />
    <glyph glyph-name="Ccedilla" unicode="&#xc7;" horiz-adv-x="755" 
d="M277 351q0 -42 28.5 -70.5t70.5 -28.5q40 0 68 25.5t31 64.5h270q-3 -149 -109.5 -253.5t-255.5 -106.5l-12 -36q41 8 74.5 -14.5t25.5 -61.5q-7 -31 -41.5 -46t-71.5 -8q-48 8 -73 50l12 7q18 -34 64 -44q32 -5 61.5 6t35.5 38q8 35 -25.5 51.5t-69.5 8.5l-7 8l12 42
q-149 5 -253 111.5t-104 255.5q0 153 108 261t261 108q150 0 257.5 -105t110.5 -255h-269q-3 39 -31.5 65.5t-68.5 26.5q-42 0 -70.5 -29t-28.5 -71z" />
    <glyph glyph-name="Egrave" unicode="&#xc8;" horiz-adv-x="613" 
d="M603 468h-333v-18h333v-200h-333v-18h333v-232h-593v700h593v-232zM340 731h-16l-77 108h18z" />
    <glyph glyph-name="Eacute" unicode="&#xc9;" horiz-adv-x="613" 
d="M603 468h-333v-18h333v-200h-333v-18h333v-232h-593v700h593v-232zM302 731h-16l75 108h18z" />
    <glyph glyph-name="Ecircumflex" unicode="&#xca;" horiz-adv-x="613" 
d="M603 468h-333v-18h333v-200h-333v-18h333v-232h-593v700h593v-232zM442 733h-19l-103 93l-103 -93h-20v2l118 105h10l117 -105v-2z" />
    <glyph glyph-name="Edieresis" unicode="&#xcb;" horiz-adv-x="613" 
d="M603 468h-333v-18h333v-200h-333v-18h333v-232h-593v700h593v-232zM192 775q0 9 6.5 15.5t15.5 6.5t15.5 -6.5t6.5 -15.5t-6.5 -15.5t-15.5 -6.5t-15.5 6.5t-6.5 15.5zM390 775q0 9 6.5 15.5t15.5 6.5t15.5 -6.5t6.5 -15.5t-6 -15.5t-16 -6.5q-9 0 -15.5 6.5t-6.5 15.5z
" />
    <glyph glyph-name="Igrave" unicode="&#xcc;" horiz-adv-x="282" 
d="M272 0h-262v700h262v-700zM157 731h-16l-77 108h18z" />
    <glyph glyph-name="Iacute" unicode="&#xcd;" horiz-adv-x="282" 
d="M272 0h-262v700h262v-700zM134 731h-16l75 108h18z" />
    <glyph glyph-name="Icircumflex" unicode="&#xce;" horiz-adv-x="282" 
d="M272 0h-262v700h262v-700zM264 733h-19l-103 93l-103 -93h-20v2l118 105h10l117 -105v-2z" />
    <glyph glyph-name="Idieresis" unicode="&#xcf;" horiz-adv-x="282" 
d="M272 0h-262v700h262v-700zM20 785q0 9 6.5 15.5t15.5 6.5t15.5 -6.5t6.5 -15.5t-6.5 -15.5t-15.5 -6.5t-15.5 6.5t-6.5 15.5zM218 785q0 9 6.5 15.5t15.5 6.5t15.5 -6.5t6.5 -15.5t-6 -15.5t-16 -6.5q-9 0 -15.5 6.5t-6.5 15.5z" />
    <glyph glyph-name="Eth" unicode="&#xd0;" horiz-adv-x="695" 
d="M-30 358h44v342h332q82 0 148 -30t106.5 -79.5t62.5 -112t22 -128.5t-22 -128.5t-62.5 -112t-106.5 -79.5t-148 -30h-332v343h-44v15zM273 271h78q32 0 50 25t18 55.5t-18 55.5t-50 25h-78v-74h64v-15h-64v-72z" />
    <glyph glyph-name="Ntilde" unicode="&#xd1;" horiz-adv-x="685" 
d="M261 700l195 -303h15l-56 91v212h260v-700h-263l-182 290h-16l57 -92v-198h-260v700h250zM219 777l-12 5q20 46 61 55q43 7 77 -27q28 -30 63 -23q34 7 51 45l12 -5q-19 -45 -61 -54q-41 -8 -76 27q-28 30 -63 23q-36 -6 -52 -46z" />
    <glyph glyph-name="Ograve" unicode="&#xd2;" horiz-adv-x="786" 
d="M393 -20q-158 0 -270.5 108.5t-112.5 261.5t112.5 261t270.5 108t270 -108t112 -261t-112 -261.5t-270 -108.5zM293 350q0 -41 29 -70t70 -29t70.5 29t29.5 70t-29.5 70.5t-70.5 29.5t-70 -29.5t-29 -70.5zM408 737h-16l-77 108h18z" />
    <glyph glyph-name="Oacute" unicode="&#xd3;" horiz-adv-x="786" 
d="M393 -20q158 0 270 108.5t112 261.5t-112 261t-270 108t-270.5 -108t-112.5 -261t112.5 -261.5t270.5 -108.5zM293 350q0 41 29 70.5t70 29.5t70.5 -29.5t29.5 -70.5t-29.5 -70t-70.5 -29t-70 29t-29 70zM401 757h-16l75 108h18z" />
    <glyph glyph-name="Ocircumflex" unicode="&#xd4;" horiz-adv-x="786" 
d="M393 -20q-158 0 -270.5 108.5t-112.5 261.5t112.5 261t270.5 108t270 -108t112 -261t-112 -261.5t-270 -108.5zM293 350q0 -41 29 -70t70 -29t70.5 29t29.5 70t-29.5 70.5t-70.5 29.5t-70 -29.5t-29 -70.5zM515 745h-19l-103 93l-103 -93h-20v2l118 105h10l117 -105v-2z
" />
    <glyph glyph-name="Otilde" unicode="&#xd5;" horiz-adv-x="786" 
d="M393 -20q-158 0 -270.5 108.5t-112.5 261.5t112.5 261t270.5 108t270 -108t112 -261t-112 -261.5t-270 -108.5zM293 350q0 -41 29 -70t70 -29t70.5 29t29.5 70t-29.5 70.5t-70.5 29.5t-70 -29.5t-29 -70.5zM271 778l-12 5q20 46 61 55q43 7 77 -27q28 -30 63 -23
q34 7 51 45l12 -5q-19 -45 -61 -54q-41 -8 -76 27q-28 30 -63 23q-36 -6 -52 -46z" />
    <glyph glyph-name="Odieresis" unicode="&#xd6;" horiz-adv-x="786" 
d="M393 -20q158 0 270 108.5t112 261.5t-112 261t-270 108t-270.5 -108t-112.5 -261t112.5 -261.5t270.5 -108.5zM293 350q0 41 29 70.5t70 29.5t70.5 -29.5t29.5 -70.5t-29.5 -70t-70.5 -29t-70 29t-29 70zM271 794q0 9 6.5 15.5t15.5 6.5t15.5 -6.5t6.5 -15.5t-6.5 -15.5
t-15.5 -6.5t-15.5 6.5t-6.5 15.5zM469 794q0 9 6.5 15.5t15.5 6.5t15.5 -6.5t6.5 -15.5t-6 -15.5t-16 -6.5q-9 0 -15.5 6.5t-6.5 15.5z" />
    <glyph glyph-name="Oslash" unicode="&#xd8;" horiz-adv-x="786" 
d="M393 -20q-78 0 -152 30l-48 -103h-16l51 109q-98 45 -158 135t-60 199q0 153 112.5 261t270.5 108q76 0 149 -30l43 92h17l-46 -98q99 -45 159 -134.5t60 -198.5q0 -153 -112 -261.5t-270 -108.5zM392 251q41 0 70.5 29t29.5 70q0 58 -51 87l-84 -180q16 -6 35 -6z
M293 350q0 -59 50 -87l84 180q-19 7 -35 7q-41 0 -70 -29.5t-29 -70.5z" />
    <glyph glyph-name="Ugrave" unicode="&#xd9;" horiz-adv-x="692" 
d="M418 332v363v5h262v-371q0 -83 -28.5 -150t-75.5 -108.5t-107 -64t-123 -22.5t-123 22.5t-107 64t-75.5 108.5t-28.5 150v371h260v-5v-363q0 -40 23 -63t50 -23t50 23t23 63zM363 731h-16l-77 108h18z" />
    <glyph glyph-name="Uacute" unicode="&#xda;" horiz-adv-x="692" 
d="M418 695v-363q0 -40 -23 -63t-50 -23t-50 23t-23 63v363v5h-260v-371q0 -83 28.5 -150t75.5 -108.5t107 -64t123 -22.5t123 22.5t107 64t75.5 108.5t28.5 150v371h-262v-5zM349 735h-16l75 108h18z" />
    <glyph glyph-name="Ucircumflex" unicode="&#xdb;" horiz-adv-x="692" 
d="M418 332v363v5h262v-371q0 -83 -28.5 -150t-75.5 -108.5t-107 -64t-123 -22.5t-123 22.5t-107 64t-75.5 108.5t-28.5 150v371h260v-5v-363q0 -40 23 -63t50 -23t50 23t23 63zM469 743h-19l-103 93l-103 -93h-20v2l118 105h10l117 -105v-2z" />
    <glyph glyph-name="Udieresis" unicode="&#xdc;" horiz-adv-x="692" 
d="M418 695v-363q0 -40 -23 -63t-50 -23t-50 23t-23 63v363v5h-260v-371q0 -83 28.5 -150t75.5 -108.5t107 -64t123 -22.5t123 22.5t107 64t75.5 108.5t28.5 150v371h-262v-5zM223 791q0 9 6.5 15.5t15.5 6.5t15.5 -6.5t6.5 -15.5t-6.5 -15.5t-15.5 -6.5t-15.5 6.5
t-6.5 15.5zM421 791q0 9 6.5 15.5t15.5 6.5t15.5 -6.5t6.5 -15.5t-6 -15.5t-16 -6.5q-9 0 -15.5 6.5t-6.5 15.5z" />
    <glyph glyph-name="Yacute" unicode="&#xdd;" horiz-adv-x="831" 
d="M300 700l162 -278h15l-53 93l106 185h304l-289 -475v-225h-260v223l-290 477h305zM425 768h-16l75 108h18z" />
    <glyph glyph-name="Thorn" unicode="&#xde;" horiz-adv-x="677" 
d="M271 0h-260v700h260v-60h73q66 1 122 -18.5t93.5 -53.5t65 -78.5t34.5 -94t3.5 -99.5t-28 -95t-61 -80t-95 -55.5t-129.5 -20.5h-60v243h60q36 0 51 25t0 50t-51 25h-78v-388z" />
    <glyph glyph-name="germandbls" unicode="&#xdf;" horiz-adv-x="635" 
d="M256 479v-479h-246v494q0 67 41 117q72 86 251 89h4q166 -5 234 -89q43 -50 41 -124.5t-54 -117.5q47 -21 71.5 -64t24 -92.5t-23.5 -94.5q-34 -67 -108.5 -92.5t-182.5 -25.5h-33v191h51q31 0 43.5 19.5t-0.5 39.5t-44 20h-50v178h42q30 0 42 19t0 37.5t-42 18.5
q-61 0 -61 -44z" />
    <glyph glyph-name="agrave" unicode="&#xe0;" horiz-adv-x="597" 
d="M299 578q119 0 204 -84.5t85 -204.5v-289h-240v289q0 20 -14.5 35t-34.5 15q-21 0 -35.5 -15t-14.5 -35t14.5 -35t35.5 -15h35v-239h-35q-120 0 -204.5 85t-84.5 204q0 120 84.5 204.5t204.5 84.5zM340 596h-16l-77 108h18z" />
    <glyph glyph-name="aacute" unicode="&#xe1;" horiz-adv-x="597" 
d="M299 578q-120 0 -204.5 -84.5t-84.5 -204.5q0 -119 84.5 -204t204.5 -85h35v239h-35q-21 0 -35.5 15t-14.5 35t14.5 35t35.5 15q20 0 34.5 -15t14.5 -35v-289h240v289q0 120 -85 204.5t-204 84.5zM305 601h-16l75 108h18z" />
    <glyph glyph-name="acircumflex" unicode="&#xe2;" horiz-adv-x="597" 
d="M299 578q119 0 204 -84.5t85 -204.5v-289h-240v289q0 20 -14.5 35t-34.5 15q-21 0 -35.5 -15t-14.5 -35t14.5 -35t35.5 -15h35v-239h-35q-120 0 -204.5 85t-84.5 204q0 120 84.5 204.5t204.5 84.5zM436 600h-19l-103 93l-103 -93h-20v2l118 105h10l117 -105v-2z" />
    <glyph glyph-name="atilde" unicode="&#xe3;" horiz-adv-x="597" 
d="M299 578q119 0 204 -84.5t85 -204.5v-289h-240v289q0 20 -14.5 35t-34.5 15q-21 0 -35.5 -15t-14.5 -35t14.5 -35t35.5 -15h35v-239h-35q-120 0 -204.5 85t-84.5 204q0 120 84.5 204.5t204.5 84.5zM199 631l-11 5q18 46 58 55q40 7 73 -27q28 -30 60 -23q34 7 49 45
l12 -5q-19 -45 -59 -54q-38 -9 -72 27q-27 30 -60 23q-34 -6 -50 -46z" />
    <glyph glyph-name="adieresis" unicode="&#xe4;" horiz-adv-x="597" 
d="M299 578q-120 0 -204.5 -84.5t-84.5 -204.5q0 -119 84.5 -204t204.5 -85h35v239h-35q-21 0 -35.5 15t-14.5 35t14.5 35t35.5 15q20 0 34.5 -15t14.5 -35v-289h240v289q0 120 -85 204.5t-204 84.5zM193 667q0 9 6.5 15.5t15.5 6.5t15.5 -6.5t6.5 -15.5t-6.5 -15.5
t-15.5 -6.5t-15.5 6.5t-6.5 15.5zM391 667q0 9 6.5 15.5t15.5 6.5t15.5 -6.5t6.5 -15.5t-6 -15.5t-16 -6.5q-9 0 -15.5 6.5t-6.5 15.5z" />
    <glyph glyph-name="aring" unicode="&#xe5;" horiz-adv-x="597" 
d="M311 712q48 0 71.5 -28.5t13.5 -62.5t-46 -48q102 -19 170 -99t68 -185v-289h-240v289q0 20 -14.5 35t-34.5 15q-21 0 -35.5 -15t-14.5 -35t14.5 -35t35.5 -15h35v-239h-35q-120 0 -204.5 85t-84.5 204q0 110 73 192t182 95q-32 16 -39.5 49t16 60t69.5 27zM311 579
q34 0 53.5 19t19.5 41.5t-19.5 41.5t-53.5 19t-53 -19t-19 -41.5t19 -41.5t53 -19z" />
    <glyph glyph-name="ae" unicode="&#xe6;" horiz-adv-x="929" 
d="M299 578q104 0 166 -74q73 80 200 75q72 -2 135 -33.5t94 -84.5q16 -28 21 -68.5t-6.5 -80.5t-39.5 -59h-202q34 18 25.5 53.5t-53.5 36.5q-41 1 -52 -38q1 -6 1 -16v-16q10 -33 49 -33h283v-240h-283q-118 0 -202.5 82.5t-86.5 199.5v7q0 20 -14.5 35t-34.5 15
q-21 0 -35.5 -15t-14.5 -35t14.5 -35t35.5 -15h39q11 -82 63 -147t140 -92h-242q-120 0 -204.5 85t-84.5 204q0 120 84.5 204.5t204.5 84.5z" />
    <glyph glyph-name="ccedilla" unicode="&#xe7;" horiz-adv-x="612" 
d="M306 577q121 0 207.5 -84.5t89.5 -205.5h-247q-2 19 -16.5 31.5t-33.5 12.5q-21 0 -36 -15t-15 -36t15 -36t36 -15q19 0 33.5 12.5t16.5 31.5h247q-3 -118 -86 -201.5t-199 -88.5l-13 -43q41 8 74 -12t25 -59q-7 -30 -41.5 -44t-70.5 -7q-47 7 -71 49l11 6q17 -31 63 -42
q31 -5 60 6t35 36q8 33 -25 48t-68 7l-7 7l14 48q-122 1 -208.5 87.5t-86.5 209.5t87 210t210 87z" />
    <glyph glyph-name="egrave" unicode="&#xe8;" horiz-adv-x="590" 
d="M530 253h-202q34 18 25.5 53.5t-53.5 36.5q-33 1 -47 -25t-1 -52t46 -26h283v-240h-283q-119 0 -204 85t-85 204q0 122 80 204.5t212 84.5q186 0 254 -117q16 -28 21 -68.5t-6.5 -80.5t-39.5 -59zM313 603h-16l-77 108h18z" />
    <glyph glyph-name="eacute" unicode="&#xe9;" horiz-adv-x="590" 
d="M530 253h-202q34 18 25.5 53.5t-53.5 36.5q-33 1 -47 -25t-1 -52t46 -26h283v-240h-283q-119 0 -204 85t-85 204q0 122 80 204.5t212 84.5q186 0 254 -117q16 -28 21 -68.5t-6.5 -80.5t-39.5 -59zM306 597h-16l75 108h18z" />
    <glyph glyph-name="ecircumflex" unicode="&#xea;" horiz-adv-x="590" 
d="M530 253h-202q34 18 25.5 53.5t-53.5 36.5q-33 1 -47 -25t-1 -52t46 -26h283v-240h-283q-119 0 -204 85t-85 204q0 122 80 204.5t212 84.5q186 0 254 -117q16 -28 21 -68.5t-6.5 -80.5t-39.5 -59zM432 598h-19l-103 93l-103 -93h-20v2l118 105h10l117 -105v-2z" />
    <glyph glyph-name="edieresis" unicode="&#xeb;" horiz-adv-x="590" 
d="M530 253h-202q34 18 25.5 53.5t-53.5 36.5q-33 1 -47 -25t-1 -52t46 -26h283v-240h-283q-119 0 -204 85t-85 204q0 122 80 204.5t212 84.5q186 0 254 -117q16 -28 21 -68.5t-6.5 -80.5t-39.5 -59zM190 667q0 9 6.5 15.5t15.5 6.5t15.5 -6.5t6.5 -15.5t-6.5 -15.5
t-15.5 -6.5t-15.5 6.5t-6.5 15.5zM388 667q0 9 6.5 15.5t15.5 6.5t15.5 -6.5t6.5 -15.5t-6 -15.5t-16 -6.5q-9 0 -15.5 6.5t-6.5 15.5z" />
    <glyph glyph-name="igrave" unicode="&#xec;" horiz-adv-x="266" 
d="M10 0v561h246v-561h-246zM149 593h-16l-77 108h18z" />
    <glyph glyph-name="iacute" unicode="&#xed;" horiz-adv-x="266" 
d="M10 561v-561h246v561h-246zM129 599h-16l75 108h18z" />
    <glyph glyph-name="icircumflex" unicode="&#xee;" horiz-adv-x="266" 
d="M10 0v561h246v-561h-246zM255 600h-19l-103 93l-103 -93h-20v2l118 105h10l117 -105v-2z" />
    <glyph glyph-name="idieresis" unicode="&#xef;" horiz-adv-x="266" 
d="M19 659q0 9 6.5 15.5t15.5 6.5t15.5 -6.5t6.5 -15.5t-6.5 -15.5t-15.5 -6.5t-15.5 6.5t-6.5 15.5zM202 659q0 9 6.5 15.5t15.5 6.5t15.5 -6.5t6.5 -15.5t-6 -15.5t-16 -6.5q-9 0 -15.5 6.5t-6.5 15.5zM10 561v-561h246v561h-246z" />
    <glyph glyph-name="eth" unicode="&#xf0;" horiz-adv-x="634" 
d="M127 559l-4 13l74 24l-73 104h291l17 -26l82 28l4 -13l-79 -26l115 -173q58 -88 67 -178t-23 -159t-93 -113q-65 -49 -177 -49q-67 0 -124 20t-95 54t-63 78.5t-33.5 92.5t-0.5 97.5t31 92t65.5 77.5t98.5 53l125 -181q-33 0 -53.5 -18.5t-20.5 -44.5t17.5 -44t42.5 -18
q26 0 43.5 16.5t17.5 45.5q0 17 -27 59.5t-147 213.5z" />
    <glyph glyph-name="ntilde" unicode="&#xf1;" horiz-adv-x="596" 
d="M255 275v-271v-4h-246v286q0 69 25 125.5t65.5 91t92.5 53t106 18.5t106 -18.5t92.5 -53t65.5 -91t25 -125.5v-286h-246v4v271q0 33 -21.5 46.5t-43 0t-21.5 -46.5zM186 639l-12 5q20 45 59 53q41 7 74 -26q29 -29 61 -22t49 43l11 -5q-18 -44 -58 -51q-40 -8 -73 25
q-27 29 -61 23t-50 -45z" />
    <glyph glyph-name="ograve" unicode="&#xf2;" horiz-adv-x="608" 
d="M305 332q-21 0 -36 -15t-15 -36t15 -36t36 -15t36 15t15 36t-15 36t-36 15zM305 -16q-123 0 -210 87t-87 210t87 210t210 87t210 -87t87 -210t-87 -210t-210 -87zM315 601h-16l-77 108h18z" />
    <glyph glyph-name="oacute" unicode="&#xf3;" horiz-adv-x="608" 
d="M305 332q21 0 36 -15t15 -36t-15 -36t-36 -15t-36 15t-15 36t15 36t36 15zM305 -16q123 0 210 87t87 210t-87 210t-210 87t-210 -87t-87 -210t87 -210t210 -87zM304 599h-16l75 108h18z" />
    <glyph glyph-name="ocircumflex" unicode="&#xf4;" horiz-adv-x="608" 
d="M305 332q-21 0 -36 -15t-15 -36t15 -36t36 -15t36 15t15 36t-15 36t-36 15zM305 -16q-123 0 -210 87t-87 210t87 210t210 87t210 -87t87 -210t-87 -210t-210 -87zM429 599h-19l-103 93l-103 -93h-20v2l118 105h10l117 -105v-2z" />
    <glyph glyph-name="otilde" unicode="&#xf5;" horiz-adv-x="608" 
d="M305 332q-21 0 -36 -15t-15 -36t15 -36t36 -15t36 15t15 36t-15 36t-36 15zM305 -16q-123 0 -210 87t-87 210t87 210t210 87t210 -87t87 -210t-87 -210t-210 -87zM187 640l-12 5q20 46 61 55q43 7 77 -27q28 -30 63 -23q34 7 51 45l12 -5q-19 -45 -61 -54q-41 -8 -76 27
q-28 30 -63 23q-36 -6 -52 -46z" />
    <glyph glyph-name="odieresis" unicode="&#xf6;" horiz-adv-x="608" 
d="M305 332q21 0 36 -15t15 -36t-15 -36t-36 -15t-36 15t-15 36t15 36t36 15zM305 -16q123 0 210 87t87 210t-87 210t-210 87t-210 -87t-87 -210t87 -210t210 -87zM184 674q0 9 6.5 15.5t15.5 6.5t15.5 -6.5t6.5 -15.5t-6.5 -15.5t-15.5 -6.5t-15.5 6.5t-6.5 15.5zM382 674
q0 9 6.5 15.5t15.5 6.5t15.5 -6.5t6.5 -15.5t-6 -15.5t-16 -6.5q-9 0 -15.5 6.5t-6.5 15.5z" />
    <glyph glyph-name="oslash" unicode="&#xf8;" horiz-adv-x="611" 
d="M305 -16q-66 0 -129 29l-46 -90h-16l50 96q-71 38 -113.5 108t-42.5 154q0 123 87 210t210 87q71 0 131 -31l46 88h17l-49 -95q69 -39 110.5 -108t41.5 -151q0 -123 -87 -210t-210 -87zM305 332q-21 0 -36 -15t-15 -36q0 -28 23 -43l46 90q-10 4 -18 4zM305 230
q21 0 36 15t15 36q0 23 -20 40l-46 -89q5 -2 15 -2z" />
    <glyph glyph-name="ugrave" unicode="&#xf9;" horiz-adv-x="603" 
d="M345 284v273v4h248v-287q0 -92 -43 -160t-108 -98.5t-140.5 -30.5t-140.5 30.5t-108 98.5t-43 160v287h248v-4v-273q0 -33 22 -46.5t43.5 0t21.5 46.5zM318 595h-16l-77 108h18z" />
    <glyph glyph-name="uacute" unicode="&#xfa;" horiz-adv-x="603" 
d="M345 557v-273q0 -33 -21.5 -46.5t-43.5 0t-22 46.5v273v4h-248v-287q0 -92 43 -160t108 -98.5t140.5 -30.5t140.5 30.5t108 98.5t43 160v287h-248v-4zM304 597h-16l75 108h18z" />
    <glyph glyph-name="ucircumflex" unicode="&#xfb;" horiz-adv-x="603" 
d="M345 284v273v4h248v-287q0 -92 -43 -160t-108 -98.5t-140.5 -30.5t-140.5 30.5t-108 98.5t-43 160v287h248v-4v-273q0 -33 22 -46.5t43.5 0t21.5 46.5zM423 602h-19l-103 93l-103 -93h-20v2l118 105h10l117 -105v-2z" />
    <glyph glyph-name="udieresis" unicode="&#xfc;" horiz-adv-x="603" 
d="M345 557v-273q0 -33 -21.5 -46.5t-43.5 0t-22 46.5v273v4h-248v-287q0 -92 43 -160t108 -98.5t140.5 -30.5t140.5 30.5t108 98.5t43 160v287h-248v-4zM181 663q0 9 6.5 15.5t15.5 6.5t15.5 -6.5t6.5 -15.5t-6.5 -15.5t-15.5 -6.5t-15.5 6.5t-6.5 15.5zM379 663
q0 9 6.5 15.5t15.5 6.5t15.5 -6.5t6.5 -15.5t-6 -15.5t-16 -6.5q-9 0 -15.5 6.5t-6.5 15.5z" />
    <glyph glyph-name="yacute" unicode="&#xfd;" horiz-adv-x="733" 
d="M728 561l-287 -700h-248l55 141h-7l-236 559h263l129 -350h15l-35 95l87 255h264zM368 596h-16l75 108h18z" />
    <glyph glyph-name="thorn" unicode="&#xfe;" horiz-adv-x="612" 
d="M255 -139h-246v420v12v407h246v-134q98 26 187 -17q74 -36 117.5 -108t43.5 -160q0 -123 -87 -210t-210 -87h-37v246h37q21 0 36 15t15 36t-15 36t-36 15q-20 0 -34.5 -13.5t-16.5 -33.5v-424z" />
    <glyph glyph-name="ydieresis" unicode="&#xff;" horiz-adv-x="733" 
d="M728 561l-287 -700h-248l55 141h-7l-236 559h263l129 -350h15l-35 95l87 255h264zM250 672q0 9 6.5 15.5t15.5 6.5t15.5 -6.5t6.5 -15.5t-6.5 -15.5t-15.5 -6.5t-15.5 6.5t-6.5 15.5zM448 672q0 9 6.5 15.5t15.5 6.5t15.5 -6.5t6.5 -15.5t-6 -15.5t-16 -6.5
q-9 0 -15.5 6.5t-6.5 15.5z" />
    <glyph glyph-name="dotlessi" unicode="&#x131;" horiz-adv-x="266" 
d="M10 0v561h246v-561h-246z" />
    <glyph glyph-name="Lslash" unicode="&#x141;" horiz-adv-x="560" 
d="M-10 276v15l43 16v393h262v-292l88 33v-15l-88 -33v-146h256v-247h-518v292z" />
    <glyph glyph-name="lslash" unicode="&#x142;" horiz-adv-x="274" 
d="M10 0v701h246v-701h-246zM-36 263v15l358 131v-15z" />
    <glyph glyph-name="OE" unicode="&#x152;" horiz-adv-x="1034" 
d="M393 -20q-158 0 -270.5 108.5t-112.5 261.5t112.5 261t270.5 108q61 0 121 -19h11h496v-232h-303v-18h303v-200h-303v-18h303v-232h-496l-11 -1q-60 -19 -121 -19zM293 350q0 -41 29 -70t70 -29t70.5 29t29.5 70t-29.5 70.5t-70.5 29.5t-70 -29.5t-29 -70.5z" />
    <glyph glyph-name="oe" unicode="&#x153;" horiz-adv-x="939" 
d="M305 332q-21 0 -36 -15t-15 -36t15 -36t36 -15t36 15t15 36t-15 36t-36 15zM305 -11q-123 0 -210 84.5t-87 207.5t87 210t210 87q104 0 165 -73q60 70 178 72q84 0 147 -23.5t102 -89.5q30 -48 25.5 -110t-45.5 -101h-202q34 18 25.5 53.5t-53.5 36.5q-33 1 -47 -25
t-1 -52t46 -26h283v-240h-283q-105 0 -162 67q-68 -78 -178 -78z" />
    <glyph glyph-name="Scaron" unicode="&#x160;" horiz-adv-x="725" 
d="M398 0h-387v263h146l-11 17h-74q-38 36 -52.5 93t-8.5 108t26 88q44 82 111.5 106.5t191.5 24.5h376v-265h-338q-34 0 -58.5 -18t-31 -43.5t-2 -50.5t29 -43t61.5 -18q38 0 59.5 21.5t22.5 49t-15.5 53t-45.5 32.5h237q51 -39 72 -97.5t12.5 -115.5t-39.5 -104
q-17 -25 -35.5 -42.5t-42.5 -28.5t-43.5 -17.5t-51.5 -9t-51.5 -3t-57.5 -0.5zM251 855h19l124 -112l124 112h20v-2l-139 -124h-10l-138 124v2z" />
    <glyph glyph-name="scaron" unicode="&#x161;" horiz-adv-x="587" 
d="M295 0h-286v233h120q-6 10 -9 14h-68q-34 48 -37 105t20 97q34 66 97 89.5t161 23.5h285v-226h-285q-28 0 -44.5 -20t-11.5 -44q4 -20 19 -34t39 -14q28 0 42.5 19.5t9.5 43.5t-27 35h200q31 -33 44 -73t9.5 -75t-18.5 -65q-34 -65 -97.5 -87t-162.5 -22zM182 713h19
l124 -112l124 112h20v-2l-139 -124h-10l-138 124v2z" />
    <glyph glyph-name="Ydieresis" unicode="&#x178;" horiz-adv-x="831" 
d="M300 700l162 -278h15l-53 93l106 185h304l-289 -475v-225h-260v223l-290 477h305zM292 797q0 9 6.5 15.5t15.5 6.5t15.5 -6.5t6.5 -15.5t-6.5 -15.5t-15.5 -6.5t-15.5 6.5t-6.5 15.5zM490 797q0 9 6.5 15.5t15.5 6.5t15.5 -6.5t6.5 -15.5t-6 -15.5t-16 -6.5
q-9 0 -15.5 6.5t-6.5 15.5z" />
    <glyph glyph-name="Zcaron" unicode="&#x17d;" horiz-adv-x="678" 
d="M667 259v-259h-655v52l235 389h-231v259h655v-34l-228 -394h-118l-5 -13h347zM212 852h19l124 -112l124 112h20v-2l-139 -124h-10l-138 124v2z" />
    <glyph glyph-name="zcaron" unicode="&#x17e;" horiz-adv-x="565" 
d="M298 238h258v-238h-562v27l178 297h-164v237h549v-20l-167 -290h-86zM140 717h19l124 -112l124 112h20v-2l-139 -124h-10l-138 124v2z" />
    <glyph glyph-name="circumflex" unicode="&#x2c6;" horiz-adv-x="421" 
d="M333 594h-19l-103 93l-103 -93h-20v2l118 105h10l117 -105v-2z" />
    <glyph glyph-name="caron" unicode="&#x2c7;" horiz-adv-x="424" 
d="M68 706h19l124 -112l124 112h20v-2l-139 -124h-10l-138 124v2z" />
    <glyph glyph-name="breve" unicode="&#x2d8;" horiz-adv-x="428" 
d="M211 574q-58 0 -100.5 34.5t-42.5 93.5h13q0 -53 37.5 -83t92.5 -30t93 30t38 83h13q0 -59 -42.5 -93.5t-101.5 -34.5z" />
    <glyph glyph-name="dotaccent" unicode="&#x2d9;" horiz-adv-x="157" 
d="M86 700v-126h-14v126h14z" />
    <glyph glyph-name="ring" unicode="&#x2da;" horiz-adv-x="351" 
d="M171 565q-41 0 -64 23t-23 50t23 50t64 23t64.5 -23t23.5 -50t-23.5 -50t-64.5 -23zM171 578q34 0 53.5 19t19.5 41.5t-19.5 41.5t-53.5 19t-53 -19t-19 -41.5t19 -41.5t53 -19z" />
    <glyph glyph-name="ogonek" unicode="&#x2db;" horiz-adv-x="340" 
d="M160 0l14 4l19 -68l-8 -9q-25 3 -47 -1q-29 -6 -44 -23.5t-10 -44.5q7 -32 38.5 -45t64.5 -6q49 10 69 52l12 -9q-23 -47 -78 -57q-39 -8 -75.5 8.5t-44.5 53.5q-6 34 12 56t53 29q20 5 41 3z" />
    <glyph glyph-name="tilde" unicode="&#x2dc;" horiz-adv-x="440" 
d="M108 716l-12 5q20 46 61 55q43 7 77 -27q28 -30 63 -23q34 7 51 45l12 -5q-19 -45 -61 -54q-41 -8 -76 27q-28 30 -63 23q-36 -6 -52 -46z" />
    <glyph glyph-name="hungarumlaut" unicode="&#x2dd;" horiz-adv-x="422" 
d="M86 566h-18l97 134h18zM261 566h-18l97 134h18z" />
    <glyph glyph-name="_0004" horiz-adv-x="0" 
 />
    <glyph glyph-name="_0141" horiz-adv-x="0" 
 />
    <glyph glyph-name="_0158" horiz-adv-x="0" 
 />
    </font>
</defs>
</svg>
